<?xml version="1.0" standalone="no"?><!DOCTYPE svg PUBLIC "-//W3C//DTD SVG 1.1//EN" "http://www.w3.org/Graphics/SVG/1.1/DTD/svg11.dtd"><svg t="1742440917988" class="icon" viewBox="0 0 1194 1024" version="1.1" xmlns="http://www.w3.org/2000/svg" p-id="1508" xmlns:xlink="http://www.w3.org/1999/xlink" width="233.203125" height="200"><path d="M42.69248 1023.971842a41.555048 41.555048 0 0 1-30.71831-11.94601 41.555048 41.555048 0 0 1-11.94601-30.718311V42.692479C0.02816 30.234497 4.038606 19.99506 11.97417 11.974168A41.555048 41.555048 0 0 1 42.69248 0.028158h1109.272323c12.457981 0 22.697418 4.010446 30.718311 11.94601 7.935564 8.020892 11.94601 18.260329 11.94601 30.718311v938.615042a41.555048 41.555048 0 0 1-11.94601 30.718311 41.555048 41.555048 0 0 1-30.718311 11.94601H42.69248z m421.352826-304.025946L371.975703 628.046951A42.152348 42.152348 0 0 0 341.342721 614.650354a42.152348 42.152348 0 0 0-30.71831 13.396597L85.3568 853.314561h1038.620209L801.264092 466.605163A41.640376 41.640376 0 0 0 767.985922 450.648708a41.640376 41.640376 0 0 0-33.278169 16.041784L526.591199 715.93545a39.763146 39.763146 0 0 1-30.71831 15.359155 43.773592 43.773592 0 0 1-31.998241-11.348709zM256.014081 341.342719c0 23.124062 5.802348 44.456222 17.321714 63.996481 11.519366 19.540259 27.305165 35.070071 47.357395 46.674766 19.966902 11.604695 41.043076 17.321714 63.313851 17.321714 22.185446 0 43.517607-5.802348 63.99648-17.321714s36.179343-27.049179 47.272067-46.674766A127.99296 127.99296 0 0 0 512.000002 341.342719c-0.853286-36.435329-13.396597-66.641668-37.373945-90.704344-23.977348-23.892019-54.269015-35.923358-90.704344-35.923358-36.350001 0-66.556339 11.94601-90.619016 35.923358-23.977348 24.062677-36.435329 54.269015-37.373945 90.704344H256.014081z" p-id="1509" fill="#8a8a8a"></path></svg>
